<?xml version="1.0" encoding="utf-8"?>
<!-- Generator: Adobe Illustrator 27.3.1, SVG Export Plug-In . SVG Version: 6.00 Build 0)  -->
<svg version="1.1" id="Icon_x5F_contour" xmlns="http://www.w3.org/2000/svg" xmlns:xlink="http://www.w3.org/1999/xlink" x="0px"
	 y="0px" viewBox="0 0 192 192" style="enable-background:new 0 0 192 192;" xml:space="preserve">
<path d="M92,95.76001l8,3.37V108H84.61224l7.34772,51.43408l-7.91992,1.13184L76.53064,108H39.46936l-7.5094,52.56592
	l-7.91992-1.13184L31.38776,108H16V32h84v41.07996l-8-3.37V40H24v60h68V95.76001z M176,84v28h-8v48h-8v-56h8V84
	c0-8.82227-7.17773-16-16-16c-6.36328,0-12.12207,3.76904-14.67041,9.60156c-0.82617,1.89062-6.6499,16.44727-9.61426,23.87988
	l-7.43066-2.96289c0.35156-0.88281,8.63037-21.63916,9.71387-24.12012c2.63879-6.03845,7.57288-10.59937,13.51495-12.84637
	c-0.00116-0.00073-0.00232-0.00134-0.00348-0.00208C139,58.71997,136,53.70001,136,48c0-8.82001,7.17999-16,16-16s16,7.17999,16,16
	c0,5.70001-3,10.71997-7.51001,13.54999c-0.00201,0.00128-0.00415,0.00232-0.00616,0.0036C169.54205,64.98865,176,73.7522,176,84z
	 M144,48c0,4.40997,3.59003,8,8,8s8-3.59003,8-8c0-4.41003-3.59003-8-8-8S144,43.58997,144,48z M136,160h8v-56h-8V160z M92,78.39001
	L77.54999,72.31l-3.09998,7.38L92,87.07996l8,3.37006L112.45001,95.69l3.09998-7.38L100,81.76001L92,78.39001z M49.32001,92
	v-5.76001C43.04999,85.82996,38.22998,83.13,36,78.82001l7.09998-3.62c1.49005,2.63995,3.34003,3.89996,6.22003,4.31v-6.73004
	c-3.85004-0.69-5.71002-1.33997-7.60999-2.58997c-2.74005-1.77002-4.09003-4.37-4.09003-7.85004
	c0-6.07996,4-9.60999,11.70001-10.26001V48h3.62v4.17999c4.87,0.54999,8.35999,2.64001,10.81,6.35999l-6.48999,3.85004
	C55.82001,60.44,54.70001,59.56,52.94,59v6.45001C56.97998,66.19,58.92999,66.83997,60.78003,68
	c2.69995,1.67999,3.89996,4.08997,3.89996,7.65997c0,2.97003-0.96997,5.53003-2.83002,7.29004
	c-1.89996,1.85999-4.54999,2.77997-8.90997,3.25V92H49.32001z M52.94,79.56c2.59998-0.37,3.84998-1.29999,3.84998-2.97003
	c0-1.62-0.96997-2.45996-3.84998-3.19995V79.56z M49.32001,64.89001v-6.21002c-2.78003,0.27002-4.03998,1.20001-4.03998,2.96997
	C45.28003,63.32001,46.34998,64.20001,49.32001,64.89001z"/>
<g>
</g>
<g>
</g>
<g>
</g>
<g>
</g>
<g>
</g>
<g>
</g>
<g>
</g>
<g>
</g>
<g>
</g>
<g>
</g>
<g>
</g>
<g>
</g>
<g>
</g>
<g>
</g>
<g>
</g>
</svg>
