<?xml version="1.0" encoding="utf-8"?>
<!-- Generator: Adobe Illustrator 28.2.0, SVG Export Plug-In . SVG Version: 6.00 Build 0)  -->
<svg version="1.1" id="Icon_x5F_contour" xmlns="http://www.w3.org/2000/svg" xmlns:xlink="http://www.w3.org/1999/xlink" x="0px"
	 y="0px" viewBox="0 0 192 192" style="enable-background:new 0 0 192 192;" xml:space="preserve">
<path d="M144,136h-32v-8h32V136z M144,72H92v8h52V72z M144,100h-44v8h44V100z M104,122H84v20h20V122z M92,94H72v20h20V94z M160,48
	H48v112h112V48z M56,56h96v96H56V56z M40,40h108v-8H32v116h8V40z M74,66c-5.5,0-10,4.5-10,10s4.5,10,10,10s10-4.5,10-10
	S79.5,66,74,66z"/>
<g>
</g>
<g>
</g>
<g>
</g>
<g>
</g>
<g>
</g>
<g>
</g>
<g>
</g>
<g>
</g>
<g>
</g>
<g>
</g>
<g>
</g>
<g>
</g>
<g>
</g>
<g>
</g>
<g>
</g>
</svg>
