<?xml version="1.0" encoding="utf-8"?>
<!-- Generator: Adobe Illustrator 24.0.1, SVG Export Plug-In . SVG Version: 6.00 Build 0)  -->
<svg version="1.1" id="Icon_x5F_contour" xmlns="http://www.w3.org/2000/svg" xmlns:xlink="http://www.w3.org/1999/xlink" x="0px"
	 y="0px" viewBox="0 0 192 192" style="enable-background:new 0 0 192 192;" xml:space="preserve">
<path d="M176.00049,39.99902v104H96.06885v-8h71.93164v-88h-132v23.94775h-8V39.99902H176.00049z M160.00049,55.99902h-76v8h76
	V55.99902z M84.00049,79.99902h24.09521v-8H84.00049V79.99902z M107.65576,113.62354l16-36l-7.31055-3.24902l-16,36
	L107.65576,113.62354z M102.56104,123.07178l-29.50537,24.58838l-1.01465-7.09473
	c-1.67725-11.72461-12.01221-20.56641-24.04053-20.56641c-13.2334,0-24,10.76611-24,24L24.00146,148l-8,0.00195L16.00049,144
	c0-14.27722,9.3988-26.39661,22.33252-30.50494c-6.15393-3.41425-10.33252-9.97388-10.33252-17.49603c0-11.02783,8.97217-20,20-20
	s20,8.97217,20,20c0,7.51819-4.17438,14.07452-10.323,17.49023c9.43823,2.96649,17.13751,10.13922,20.60913,19.39795
	l19.15332-15.96094L102.56104,123.07178z M36.00049,95.99902c0,6.6167,5.3833,12,12,12s12-5.3833,12-12s-5.3833-12-12-12
	S36.00049,89.38232,36.00049,95.99902z"/>
<g>
</g>
<g>
</g>
<g>
</g>
<g>
</g>
<g>
</g>
<g>
</g>
<g>
</g>
<g>
</g>
<g>
</g>
<g>
</g>
<g>
</g>
<g>
</g>
<g>
</g>
<g>
</g>
<g>
</g>
</svg>
