<?xml version="1.0" encoding="utf-8"?>
<!-- Generator: Adobe Illustrator 24.0.1, SVG Export Plug-In . SVG Version: 6.00 Build 0)  -->
<svg version="1.1" id="Icon_x5F_contour" xmlns="http://www.w3.org/2000/svg" xmlns:xlink="http://www.w3.org/1999/xlink" x="0px"
	 y="0px" viewBox="0 0 192 192" style="enable-background:new 0 0 192 192;" xml:space="preserve">
<path d="M56,40c0-4.41827,3.58173-8,8-8s8,3.58173,8,8s-3.58173,8-8,8S56,44.41827,56,40z M43.90283,55.5708
	C41.42188,51.55029,40,45.91895,40,40.10791C40,26.81494,50.7666,16,64,16s24,10.81494,24,24.10791
	c0,5.81104-1.42188,11.44238-3.90234,15.46289c-2.94873,5.08057-16.50977,28.21777-16.64697,28.45166L64,89.91064l-3.45068-5.88818
	C60.41211,83.78857,46.85107,60.65137,43.90283,55.5708z M48,40.10791c0,4.32178,1.021,8.54346,2.73096,11.29346l0.06299,0.10498
	c1.9624,3.3833,8.92822,15.2793,13.20605,22.58154c4.27783-7.30225,11.24365-19.19873,13.20654-22.58154l0.06299-0.10449
	C78.979,48.65137,80,44.4292,80,40.10791C80,31.22607,72.82227,24,64,24S48,31.22607,48,40.10791z M176,96.03223
	c0,44.1123-35.8877,80-80,80s-80-35.8877-80-80c0-18.29877,6.18958-35.17065,16.56586-48.66425
	c0.49506,2.88977,1.29456,5.63782,2.33618,8.15594l0.00427-0.00684c0.61377,1.48456,1.31396,2.88538,2.09906,4.1709
	c0.85364,1.47034,2.48749,4.26801,4.40948,7.55463c-0.99084,3.39984-0.69928,6.3299-1.03546,7.48694
	c-0.77502,2.6673-2.44507,4.73462-4.79742,6.27454c-1.33954,0.87689-2.55121,1.94659-3.85358,2.88342
	c-1.07208,0.77112-1.54883,1.80945-1.66315,3.08917c-0.35443,3.96893,1.28723,7.26923,3.48871,10.36249
	c1.23981,1.74194,1.63928,1.90497,3.58228,1.08728c2.10803-0.88708,4.0661-0.65167,6.00317,0.35449
	c0.80463,0.41791,1.66052,0.83105,2.30713,1.44281c2.54834,2.41132,5.49536,4.19257,8.58203,5.80261
	c0.90686,0.47302,1.71686,1.17999,2.46588,1.89075c0.52124,0.49445,1.09174,1.12689,1.2406,1.78766
	c0.41193,1.82764,1.6756,2.62994,3.25659,3.1925c0.85706,0.30499,1.69958,0.65063,2.55035,0.97351
	c2.79468,1.06049,5.63922,2.00793,8.37079,3.21173c2.40668,1.06055,3.33588,3.27643,2.62274,5.81909
	c-0.31287,1.11548-0.83191,2.1861-1.35822,3.22601c-0.80878,1.59814-1.20227,3.23462-0.88483,5.0257
	c0.15112,0.85309,0.22485,1.72064,0.31488,2.58368c0.28229,2.70703-0.28009,3.71411-2.65656,5.04584
	c-0.8642,0.48431-1.70435,1.04584-2.4563,1.68811c-1.2132,1.03638-1.95264,2.41528-1.77887,4.01508
	c0.27069,2.49213-0.18372,4.79242-1.10687,7.10175c-0.8288,2.07336-0.01996,4.05481,0.71033,6.04218
	c0.58563,1.59351,1.84155,2.16302,3.20142,2.77002l2.42151,3.12689c7.80811,2.90826,16.24908,4.50537,25.05798,4.50537
	c39.70117,0,72-32.29883,72-72c0-4.3291-0.39697-8.56549-1.13544-12.68512c-0.54254,1.27979-2.26971,3.75629-2.58429,4.77106
	c-0.59229,1.91083-1.75226,3.315-3.64636,4.09467c-1.52051,0.62598-1.6767,1.05969-1.07727,2.57422
	c0.1781,0.44995,0.3645,0.90015,0.5921,1.32617c1.52936,2.86292,1.08905,5.41479-0.88422,7.96796
	c-1.87976,2.43188-3.65851,4.98132-5.13538,7.66931c-0.80719,1.46924-1.39148,3.38788-1.21069,5.0072
	c0.41479,3.71362-0.34344,6.97949-2.34802,10.05176c-0.52826,0.80957-0.96313,1.68091-1.42725,2.53131
	c-2.85693,5.23505-5.85248,10.39862-10.31415,14.45416c-1.82983,1.66321-3.90851,3.16608-6.10883,4.27673
	c-2.25201,1.13672-4.21155,0.13153-5.03412-2.24683c-1.32312-3.82538-2.40912-7.73413-3.77985-11.5412
	c-1.03058-2.86243-1.01624-5.5246,0.33868-8.28033c1.14771-2.33435,1.11243-4.74237-0.14471-7.11536
	c-0.78149-1.47516-1.73254-2.97662-2.0213-4.57239c-0.59662-3.29694-2.0553-6.07727-3.96906-8.75177
	c-1.1662-1.62994-1.54541-1.94788-3.45093-1.28265c-2.11896,0.73975-4.21814,1.53674-6.34229,2.26068
	c-2.56024,0.87262-4.98767,0.63202-7.3573-0.77228c-3.44366-2.04071-6.28064-4.65491-8.33777-8.10754
	c-1.5387-2.58252-2.31433-5.28156-1.7489-8.32617c0.31268-1.68341,0.45178-3.40985,0.53363-5.12329
	c0.21857-4.57507,2.25513-8.26245,5.76575-10.99872c2.6189-2.0412,3.99353-4.95087,6.27515-7.53088
	c-1.85779-0.53662-3.09766-1.56433-3.73907-3.23999c-1.4082-3.67938,0.10284-8.46051,3.33685-10.7179
	c2.00458-1.39929,4.24408-1.6311,6.56323-1.50049c1.78021,0.10022,3.31281-0.2851,4.46582-1.74963
	c0.24078-0.30603,0.55823-0.58057,0.89453-0.77716c0.90417-0.52856,0.95099-1.14185,0.54346-2.08569
	c-1.55548-3.60223-0.64673-6.05328,3.09607-7.24255c3.0025-0.95392,7.33936-3.44574,10.09064-5.15179
	c-0.35785-0.18365-0.75653-0.42529-0.80023-0.45648c-6.51636-4.64868-13.84839-5.55402-20.96552-6.55176
	c-0.78717-0.11029-1.87726,1.35107-2.0791,2.09308c-0.15131,0.55652-0.55157,1.08844-0.95667,1.52362
	c-0.86609,0.93048-1.84351,1.75732-2.71057,2.68695c-1.5697,1.68298-3.39056,2.90314-5.43585,3.68829
	c-0.93701-7.65417-4.56244-14.48181-9.90179-19.50262c3.32739-0.42352,6.71039-0.66656,10.151-0.66656
	C140.1123,16.03223,176,51.91992,176,96.03223z M126.03815,62.91132c-2.45807-1.25055-4.82007-2.69116-7.28668-3.92346
	c-0.66614-0.33282-1.76398-0.54291-2.32104-0.21948c-1.98523,1.15295-3.18799,3.10156-4.7063,5.08453
	c5.26685-0.96277,10.29456-2.87842,14.90997,1.50232C126.31189,64.41705,127.2923,63.54944,126.03815,62.91132z M144.42694,68.34094
	c-0.75861-0.48254-1.66144-0.86133-2.54419-1.00024c-1.81873-0.28613-3.66559-0.41016-5.50494-0.54364
	c-1.71191-0.12415-3.37799-0.28589-4.30402-2.18164c-1.23816,1.53412-2.61243,2.44977-4.83185,1.91351
	c0.39172,0.89056,0.68713,1.52032,0.94849,2.16388c0.83905,2.0658,2.25873,3.13477,4.591,2.9408
	c2.73303-0.22723,5.41968,0.07391,8.0979,0.75073c0.98944,0.25012,2.21375,0.09601,3.19305-0.25659
	C145.74475,71.52545,145.92511,69.29382,144.42694,68.34094z M46.20691,147.19702
	c-0.54785-2.78278-1.65955-8.06671-2.02448-10.71021c-0.354-2.56464-1.40814-4.60785-3.26764-6.42456
	c-5.82172-5.68732-8.63232-12.75195-8.51544-20.81024c0.05365-3.70038-5.58392-7.87628-7.15796-10.53772
	C23.97968,116.02734,33.58124,138.08154,46.20691,147.19702z"/>
<g>
</g>
<g>
</g>
<g>
</g>
<g>
</g>
<g>
</g>
<g>
</g>
<g>
</g>
<g>
</g>
<g>
</g>
<g>
</g>
<g>
</g>
<g>
</g>
<g>
</g>
<g>
</g>
<g>
</g>
</svg>
